<mxfile host="app.diagrams.net" modified="2024-11-14T17:00:00.858Z" agent="Mozilla/5.0 (Windows NT 10.0; Win64; x64) AppleWebKit/537.36 (KHTML, like Gecko) Chrome/128.0.0.0 Safari/537.36 OPR/114.0.0.0" version="24.6.3" etag="xS3hcGj3NROPI9GHDUH4" type="github">
  <diagram name="Page-1" id="N2Sr2X3RwmAGquAm3mQW">
    <mxGraphModel>
      <root>
        <mxCell id="0" />
        <mxCell id="1" parent="0" />
      </root>
    </mxGraphModel>
  </diagram>
</mxfile>
